<?xml version="1.0" encoding="UTF-8"?>
<svg viewBox="0 0 640 480" xmlns="http://www.w3.org/2000/svg">
 <defs>
  <linearGradient id="e" x1=".57159" x2=".4449" y1=".36735" y2=".7449">
   <stop stop-color="#797265" offset="0"/>
   <stop stop-color="#797265" stop-opacity="0" offset="1"/>
  </linearGradient>
  <radialGradient id="b" cx="334.72" cy="404.74" r="134.42" gradientTransform="matrix(1.4233 .83556 -.10251 .17462 -104.37 22.232)" gradientUnits="userSpaceOnUse">
   <stop stop-color="#ccb986" stop-opacity="0" offset="0"/>
   <stop stop-color="#c3ad70" offset=".5"/>
   <stop stop-color="#ccb986" stop-opacity="0" offset="1"/>
  </radialGradient>
  <radialGradient id="d" cx="429.06" cy="193.36" r="115.33" gradientTransform="matrix(1.3262 .75667 -.23767 .41658 -86.795 -211.57)" gradientUnits="userSpaceOnUse">
   <stop stop-color="#b29b7a" offset="0"/>
   <stop stop-color="#b29b7a" offset=".75"/>
   <stop stop-color="#b29b7a" stop-opacity="0" offset="1"/>
  </radialGradient>
  <radialGradient id="a" cx="335.28" cy="342.66" r="128.34" gradientTransform="matrix(1.3654 .81258 -.23374 .39276 -33.913 -36.513)" gradientUnits="userSpaceOnUse">
   <stop stop-color="#ac9877" stop-opacity="0" offset="0"/>
   <stop stop-color="#ac9877" offset="1"/>
  </radialGradient>
  <radialGradient id="c" cx="389.15" cy="296.44" r="145.3" gradientTransform="matrix(1.2618 .69454 -.095713 .17388 -73.927 -49.291)" gradientUnits="userSpaceOnUse">
   <stop stop-color="#c4a361" stop-opacity="0" offset="0"/>
   <stop stop-color="#c4a361" offset=".5"/>
   <stop stop-color="#c4a361" stop-opacity="0" offset="1"/>
  </radialGradient>
 </defs>
 <path d="m442.41 336.28c-33.199 64.818-111.26 84.075-174.36 43.012-63.097-41.063-87.333-126.9-54.134-191.72 33.199-64.818 111.26-84.075 174.36-43.012 63.097 41.063 87.333 126.9 54.134 191.72z" fill="#e7c278" stroke-linecap="round" stroke-linejoin="round" stroke-width=".317"/>
 <path d="m199.74 256.37c4.3515 106.48 111.79 176.83 196.97 127.87-72.275-24.955-143.14-70.498-196.97-127.87z" fill="url(#a)" fill-rule="evenodd" stroke-width=".5"/>
 <path d="m334.16 124.56c49.068 8.1875 77.384 35.182 96.524 62.832 11.106 15.549 20.862 39.009 23.757 58.768-61.698-12.97-132.36-55.593-177-115.47 17.493-6.3768 36.793-9.1893 56.72-6.1342z" fill="url(#d)" stroke-linecap="round" stroke-linejoin="round" stroke-width=".438"/>
 <g stroke-width=".5">
  <path d="m333.33 124.44c26.801 33.763 64.268 57.067 98.731 64.937-28.267-41.144-62.56-60.106-98.731-64.937z" fill="url(#e)" fill-rule="evenodd"/>
  <g stroke-linecap="round" stroke-linejoin="round">
   <path d="m199.64 244.18c59.258 62.069 127.09 108.73 206.23 134.19-2.7336 2.2198-5.8078 3.9002-8.9031 5.7257-73.71-25.05-141.13-68.871-197.27-128.22-0.20712-4.8217-0.15214-7.381-0.058701-11.69h-1.5e-5z" fill="url(#b)"/>
   <path d="m235.17 158.69c51.393 64.028 151.28 131.76 218.8 142.51-0.45123 2.1191-0.948 4.2086-1.4447 6.298-68.038-10.591-169.87-79.11-221.56-144.19 1.3871-1.5474 2.756-3.1068 4.1978-4.6186h1.5e-5z" fill="url(#c)"/>
  </g>
 </g>
 <path d="m442.41 336.28c-33.199 64.818-111.26 84.075-174.36 43.012-63.097-41.063-87.333-126.9-54.134-191.72 33.199-64.818 111.26-84.075 174.36-43.012 63.097 41.063 87.333 126.9 54.134 191.72z" fill="#ffd400" stroke-linecap="round" stroke-linejoin="round" stroke-width=".317"/>
 <g transform="matrix(.44016 -.70858 .62861 .49615 -82.29 469.13)" fill="#bf0000" stroke-linecap="round" stroke-linejoin="round" stroke-width=".616">
  <path d="m400.8 158.14c-126.28-60.065-224.11-86.431-239.29-60.136-20.231 35.042 113.92 150.41 299.45 257.53s352.54 165.62 372.77 130.58c14.802-25.637-53.239-94.331-163.38-171.28-0.038818 0.56986-0.15723 1.1311-0.20276 1.7004 105.87 74.362 171.03 140.48 156.7 165.31-19.786 34.271-183.13-22.937-364.57-127.7-181.45-104.76-312.64-217.6-292.85-251.87 14.68-25.427 108.43-0.41685 229.92 56.929 0.49716-0.33963 0.96143-0.73767 1.462-1.0707h-3.1e-5z"/>
  <path d="m398.95 159.48c-120.44-56.754-213.31-81.476-227.88-56.24-19.687 34.099 110.84 146.36 291.38 250.6 180.54 104.23 343.05 161.16 362.74 127.06 14.226-24.641-50.216-90.161-155.07-163.92-0.24506 2.9525-0.51929 5.9008-0.94574 8.8333 85.237 61.896 136.21 115.68 124.1 136.66-17.765 30.771-164.42-20.61-327.34-114.67-162.92-94.059-280.72-195.36-262.95-226.14 12.46-21.581 88.411-2.6513 188.81 42.965 2.3286-1.8154 4.7439-3.4876 7.1592-5.1486h-3.1e-5z"/>
  <path d="m376.93 177.95c-55.881-21.89-95.767-29.016-103.5-15.619-13.525 23.426 76.166 100.54 200.2 172.15 124.03 71.609 235.68 110.74 249.21 87.313 7.3243-12.686-15.807-41.172-58.087-75.955-1.0385 3.5137-2.1709 7.0173-3.4876 10.481 22.344 21.133 33.442 37.919 28.544 46.403-11.538 19.984-106.78-13.389-212.58-74.474s-182.3-126.87-170.76-146.85c5.3768-9.313 29.077-6.9152 63.405 4.3473 2.2767-2.6937 4.6308-5.3026 7.0664-7.7985z" fill-opacity=".73"/>
  <path d="m390.31 165.68c-96.254-43.341-168.68-61.024-180.7-40.199-17.368 30.082 97.778 129.12 257.05 221.07 159.27 91.954 302.63 142.17 320 112.09 11.663-20.2-36.6-71.542-117.69-130.91-0.97119 6.0997-2.4537 12.122-4.2222 18.106 42.28 34.782 65.411 63.269 58.087 75.955-13.525 23.426-125.18-15.704-249.21-87.313s-213.72-148.72-200.2-172.15c7.7351-13.398 47.622-6.2711 103.5 15.619 4.2633-4.3688 8.6916-8.5192 13.379-12.268z"/>
 </g>
</svg>
